<svg width="50" height="50" viewBox="0 0 50 50" xmlns="http://www.w3.org/2000/svg"><title>noun_137199_cc</title><path d="M24.573 21.768h1.525v-3.84c0-4.27 2.743-6.77 6.036-6.77 2.256 0 3.476.732 5 2.074l-.732.792c-1.402-1.28-2.44-1.83-4.33-1.83-2.743 0-5.06 2.135-5.06 5.794v3.84h5.305v.977h-5.244V49.45h-.975V22.745h-1.525v-.976zM25 49.878C11.28 49.878.183 38.72.183 25S11.28.183 25 .183 49.878 11.28 49.878 25 38.72 49.878 25 49.878zm0-48.78c-13.17 0-23.963 10.73-23.963 23.963S11.83 48.968 25 48.968c13.17 0 23.963-10.792 23.963-23.963C48.963 11.83 38.17 1.1 25 1.1z" fill="#C5C5C5" fill-rule="evenodd"/></svg>