<?xml version="1.0" encoding="UTF-8" standalone="no"?>
<svg width="50px" height="50px" viewBox="0 0 50 50" version="1.1" xmlns="http://www.w3.org/2000/svg" xmlns:xlink="http://www.w3.org/1999/xlink">
    <!-- Generator: Sketch 3.6.1 (26313) - http://www.bohemiancoding.com/sketch -->
    <title>noun_137199_cc</title>
    <desc>Created with Sketch.</desc>
    <defs></defs>
    <g id="Welcome" stroke="none" stroke-width="1" fill="none" fill-rule="evenodd">
        <g id="Full-Width-Page" transform="translate(-354.000000, -281.000000)" fill="#C5C5C5">
            <g id="noun_137199_cc" transform="translate(354.000000, 281.000000)">
                <g id="Group">
                    <path d="M24.5731707,21.7682927 L26.097561,21.7682927 L26.097561,17.9268293 C26.097561,13.6585366 28.8414634,11.1585366 32.1341463,11.1585366 C34.3902439,11.1585366 35.6097561,11.8902439 37.1341463,13.2317073 L36.402439,14.0243902 C35,12.7439024 33.9634146,12.195122 32.0731707,12.195122 C29.3292683,12.195122 27.0121951,14.3292683 27.0121951,17.9878049 L27.0121951,21.8292683 L32.3170732,21.8292683 L32.3170732,22.804878 L27.0731707,22.804878 L27.0731707,49.4512195 L26.097561,49.4512195 L26.097561,22.7439024 L24.5731707,22.7439024 L24.5731707,21.7682927 L24.5731707,21.7682927 Z M25,49.8780488 C11.2804878,49.8780488 0.182926829,38.7195122 0.182926829,25 C0.182926829,11.2804878 11.2804878,0.182926829 25,0.182926829 C38.7195122,0.182926829 49.8780488,11.2804878 49.8780488,25 C49.8780488,38.7195122 38.7195122,49.8780488 25,49.8780488 L25,49.8780488 Z M25,1.09756098 C11.8292683,1.09756098 1.03658537,11.8292683 1.03658537,25.0609756 C1.03658537,38.2926829 11.8292683,48.9634146 25,48.9634146 C38.1707317,48.9634146 48.9634146,38.1707317 48.9634146,25 C48.9634146,11.8292683 38.1707317,1.09756098 25,1.09756098 L25,1.09756098 Z" id="Shape"></path>
                </g>
            </g>
        </g>
    </g>
</svg>