<svg width="50" height="50" viewBox="0 0 50 50" xmlns="http://www.w3.org/2000/svg"><title>noun_137196_cc</title><path d="M16.22 12.927v22.44h11.34v.974H15.245V12.93h.976zm15.182 0h1.647v1.707H31.4v-1.707zm1.342 5.488v17.987h-.976V18.415h.976zM25 49.817C11.28 49.817.183 38.72.183 25S11.28.122 25 .122 49.878 11.28 49.878 25 38.72 49.817 25 49.817zm0-48.78C11.83 1.037 1.037 11.767 1.037 25 1.037 38.232 11.83 48.902 25 48.902c13.17 0 23.963-10.73 23.963-23.902C48.963 11.83 38.17 1.037 25 1.037z" fill="#C5C5C5" fill-rule="evenodd"/></svg>