<svg xmlns="http://www.w3.org/2000/svg" viewBox="0 0 100 125"><path d="M49.3 44.7h2.5v-6.3c0-7 4.5-11.1 9.9-11.1 3.7 0 5.7 1.2 8.2 3.4L68.7 32c-2.3-2.1-4-3-7.1-3-4.5 0-8.3 3.5-8.3 9.5v6.3H62v1.6h-8.6v43.7h-1.6V46.3h-2.5v-1.6zm.7 46.1C27.5 90.8 9.3 72.5 9.3 50S27.5 9.3 50 9.3 90.8 27.5 90.8 50 72.5 90.8 50 90.8zm0-80c-21.6 0-39.3 17.6-39.3 39.3S28.4 89.3 50 89.3 89.3 71.6 89.3 50 71.6 10.8 50 10.8z"/><text y="115" font-size="5" font-weight="bold" font-family="'Helvetica Neue', Helvetica, Arial-Unicode, Arial, Sans-serif">Created by Simon</text><text y="120" font-size="5" font-weight="bold" font-family="'Helvetica Neue', Helvetica, Arial-Unicode, Arial, Sans-serif">from the Noun Project</text></svg>