<svg xmlns="http://www.w3.org/2000/svg" viewBox="0 0 100 125"><path d="M42.7 75.2V29.3c1.4-.1 3-.2 4.2-.2 12.4 0 18.6 7.5 18.6 15 0 7.6-6.2 15.1-18.7 15.1-.8 0-1.6-.1-2.5-.1v16h-1.6zm1.6-44.3v26.6c.9.1 1.8.1 2.5.1 11.4 0 17-6.7 17-13.4s-5.7-13.4-17-13.4c-.7 0-1.5 0-2.5.1zM50 90.7C27.5 90.7 9.3 72.5 9.3 50S27.5 9.2 50 9.2 90.8 27.5 90.8 50 72.5 90.7 50 90.7zm0-80c-21.6 0-39.3 17.6-39.3 39.3S28.4 89.2 50 89.2 89.3 71.6 89.3 50 71.6 10.7 50 10.7z"/><text y="115" font-size="5" font-weight="bold" font-family="'Helvetica Neue', Helvetica, Arial-Unicode, Arial, Sans-serif">Created by Simon</text><text y="120" font-size="5" font-weight="bold" font-family="'Helvetica Neue', Helvetica, Arial-Unicode, Arial, Sans-serif">from the Noun Project</text></svg>