<svg xmlns="http://www.w3.org/2000/svg" viewBox="0 0 100 125"><path d="M35.6 30.2V67h18.6v1.6H34V30.2h1.6zm24.9 0h2.7V33h-2.7v-2.8zm2.2 9v29.5h-1.6V39.2h1.6zM50 90.7C27.5 90.7 9.3 72.5 9.3 50S27.5 9.2 50 9.2 90.8 27.5 90.8 50 72.5 90.7 50 90.7zm0-80c-21.6 0-39.3 17.6-39.3 39.3S28.4 89.2 50 89.2 89.3 71.6 89.3 50 71.6 10.7 50 10.7z"/><text y="115" font-size="5" font-weight="bold" font-family="'Helvetica Neue', Helvetica, Arial-Unicode, Arial, Sans-serif">Created by Simon</text><text y="120" font-size="5" font-weight="bold" font-family="'Helvetica Neue', Helvetica, Arial-Unicode, Arial, Sans-serif">from the Noun Project</text></svg>