<svg xmlns="http://www.w3.org/2000/svg" viewBox="0 0 100 125"><path d="M56.4 38.4h-9.5v19.1c0 6.5 4 9.5 9.2 9.5.4 0 .8 0 1.4-.1l.2 1.8c-.5.1-1.1.1-1.6.1-6.1 0-11-3.6-11-11.3V38.4h-2.7v-1.8h2.7V26.1h1.8v10.4h9.5v1.9zM50 90.8C27.5 90.8 9.3 72.5 9.3 50S27.5 9.3 50 9.3 90.8 27.5 90.8 50 72.5 90.8 50 90.8zm0-80c-21.6 0-39.3 17.6-39.3 39.3S28.4 89.3 50 89.3 89.3 71.6 89.3 50 71.6 10.8 50 10.8z"/><text y="115" font-size="5" font-weight="bold" font-family="'Helvetica Neue', Helvetica, Arial-Unicode, Arial, Sans-serif">Created by Simon</text><text y="120" font-size="5" font-weight="bold" font-family="'Helvetica Neue', Helvetica, Arial-Unicode, Arial, Sans-serif">from the Noun Project</text></svg>