<?xml version="1.0" encoding="UTF-8" standalone="no"?>
<svg width="50px" height="50px" viewBox="0 0 50 50" version="1.1" xmlns="http://www.w3.org/2000/svg" xmlns:xlink="http://www.w3.org/1999/xlink">
    <!-- Generator: Sketch 3.6.1 (26313) - http://www.bohemiancoding.com/sketch -->
    <title>noun_137198_cc</title>
    <desc>Created with Sketch.</desc>
    <defs></defs>
    <g id="Welcome" stroke="none" stroke-width="1" fill="none" fill-rule="evenodd">
        <g id="Full-Width-Page" transform="translate(-408.000000, -281.000000)" fill="#C5C5C5">
            <g id="noun_137198_cc" transform="translate(408.000000, 281.000000)">
                <g id="Group">
                    <path d="M20.5487805,40.3658537 L20.5487805,12.3780488 C21.402439,12.3170732 22.3780488,12.2560976 23.1097561,12.2560976 C30.6707317,12.2560976 34.4512195,16.8292683 34.4512195,21.402439 C34.4512195,26.0365854 30.6707317,30.6097561 23.0487805,30.6097561 C22.5609756,30.6097561 22.0731707,30.5487805 21.5243902,30.5487805 L21.5243902,40.304878 L20.5487805,40.304878 L20.5487805,40.3658537 Z M21.5243902,13.3536585 L21.5243902,29.5731707 C22.0731707,29.6341463 22.6219512,29.6341463 23.0487805,29.6341463 C30,29.6341463 33.4146341,25.5487805 33.4146341,21.4634146 C33.4146341,17.3780488 29.9390244,13.2926829 23.0487805,13.2926829 C22.6219512,13.2926829 22.1341463,13.2926829 21.5243902,13.3536585 L21.5243902,13.3536585 Z M25,49.8170732 C11.2804878,49.8170732 0.182926829,38.7195122 0.182926829,25 C0.182926829,11.2804878 11.2804878,0.12195122 25,0.12195122 C38.7195122,0.12195122 49.8780488,11.2804878 49.8780488,25 C49.8780488,38.7195122 38.7195122,49.8170732 25,49.8170732 L25,49.8170732 Z M25,1.03658537 C11.8292683,1.03658537 1.03658537,11.7682927 1.03658537,25 C1.03658537,38.2317073 11.8292683,48.902439 25,48.902439 C38.1707317,48.902439 48.9634146,38.1707317 48.9634146,25 C48.9634146,11.8292683 38.1707317,1.03658537 25,1.03658537 L25,1.03658537 Z" id="Shape"></path>
                </g>
            </g>
        </g>
    </g>
</svg>