<svg width="50" height="50" viewBox="0 0 50 50" xmlns="http://www.w3.org/2000/svg"><title>noun_137198_cc</title><path d="M20.55 40.366V12.378c.852-.06 1.828-.122 2.56-.122 7.56 0 11.34 4.573 11.34 9.146 0 4.635-3.78 9.208-11.4 9.208-.49 0-.977-.06-1.526-.06v9.755h-.975v.06zm.974-27.012v16.22c.55.06 1.098.06 1.525.06 6.95 0 10.36-4.085 10.36-8.17 0-4.086-3.475-8.17-10.365-8.17-.428 0-.916 0-1.526.06zM25 49.817C11.28 49.817.183 38.72.183 25S11.28.122 25 .122 49.878 11.28 49.878 25 38.72 49.817 25 49.817zm0-48.78C11.83 1.037 1.037 11.767 1.037 25 1.037 38.232 11.83 48.902 25 48.902c13.17 0 23.963-10.73 23.963-23.902C48.963 11.83 38.17 1.037 25 1.037z" fill="#C5C5C5" fill-rule="evenodd"/></svg>