<svg width="50" height="50" viewBox="0 0 50 50" xmlns="http://www.w3.org/2000/svg"><title>noun_137197_cc</title><path d="M28.902 17.927H23.11v11.646c0 3.964 2.44 5.793 5.61 5.793.243 0 .487 0 .853-.06l.122 1.096c-.305.06-.67.06-.975.06-3.72 0-6.708-2.194-6.708-6.89V17.928h-1.646V16.83h1.646v-6.403h1.098v6.34h5.792v1.16zM25 49.877C11.28 49.877.183 38.72.183 25 .183 11.28 11.28.183 25 .183S49.878 11.28 49.878 25 38.72 49.878 25 49.878zm0-48.78C11.83 1.097 1.037 11.83 1.037 25.06 1.037 38.295 11.83 48.965 25 48.965c13.17 0 23.963-10.792 23.963-23.963C48.963 11.83 38.17 1.1 25 1.1z" fill="#C5C5C5" fill-rule="evenodd"/></svg>