<?xml version="1.0" encoding="UTF-8" standalone="no"?>
<svg width="50px" height="50px" viewBox="0 0 50 50" version="1.1" xmlns="http://www.w3.org/2000/svg" xmlns:xlink="http://www.w3.org/1999/xlink">
    <!-- Generator: Sketch 3.6.1 (26313) - http://www.bohemiancoding.com/sketch -->
    <title>noun_137197_cc</title>
    <desc>Created with Sketch.</desc>
    <defs></defs>
    <g id="Welcome" stroke="none" stroke-width="1" fill="none" fill-rule="evenodd">
        <g id="Full-Width-Page" transform="translate(-300.000000, -281.000000)" fill="#C5C5C5">
            <g id="noun_137197_cc" transform="translate(300.000000, 281.000000)">
                <g id="Group">
                    <path d="M28.902439,17.9268293 L23.1097561,17.9268293 L23.1097561,29.5731707 C23.1097561,33.5365854 25.5487805,35.3658537 28.7195122,35.3658537 C28.9634146,35.3658537 29.2073171,35.3658537 29.5731707,35.304878 L29.695122,36.402439 C29.3902439,36.4634146 29.0243902,36.4634146 28.7195122,36.4634146 C25,36.4634146 22.0121951,34.2682927 22.0121951,29.5731707 L22.0121951,17.9268293 L20.3658537,17.9268293 L20.3658537,16.8292683 L22.0121951,16.8292683 L22.0121951,10.4268293 L23.1097561,10.4268293 L23.1097561,16.7682927 L28.902439,16.7682927 L28.902439,17.9268293 L28.902439,17.9268293 Z M25,49.8780488 C11.2804878,49.8780488 0.182926829,38.7195122 0.182926829,25 C0.182926829,11.2804878 11.2804878,0.182926829 25,0.182926829 C38.7195122,0.182926829 49.8780488,11.2804878 49.8780488,25 C49.8780488,38.7195122 38.7195122,49.8780488 25,49.8780488 L25,49.8780488 Z M25,1.09756098 C11.8292683,1.09756098 1.03658537,11.8292683 1.03658537,25.0609756 C1.03658537,38.2926829 11.8292683,48.9634146 25,48.9634146 C38.1707317,48.9634146 48.9634146,38.1707317 48.9634146,25 C48.9634146,11.8292683 38.1707317,1.09756098 25,1.09756098 L25,1.09756098 Z" id="Shape"></path>
                </g>
            </g>
        </g>
    </g>
</svg>